0
SECTION
2
HEADER
9
$INSUNITS
70
4
9
$ACADVER
1
AC1014
9
$HANDSEED
5
FFFF
0
ENDSEC
0
SECTION
2
TABLES
0
TABLE
2
VPORT
5
8
100
AcDbSymbolTable
0
ENDTAB
0
TABLE
2
LTYPE
5
5
100
AcDbSymbolTable
0
LTYPE
5
14
100
AcDbSymbolTableRecord
100
AcDbLinetypeTableRecord
2
BYBLOCK
70
0
0
LTYPE
5
15
100
AcDbSymbolTableRecord
100
AcDbLinetypeTableRecord
2
BYLAYER
70
0
0
LTYPE
5
16
100
AcDbSymbolTableRecord
100
AcDbLinetypeTableRecord
2
DASHED
70
0
3
Dashed __ __ __ __ __ __ __ __ __ __ __ __ __ _
72
65
73
2
40
0.75
49
0.5
74
0
49
-0.25
74
0
0
ENDTAB
0
TABLE
2
LAYER
5
2
100
AcDbSymbolTable
70
2
0
LAYER
5
50
100
AcDbSymbolTableRecord
100
AcDbLayerTableRecord
2
0
70
0
62
7
6
CONTINUOUS
0
ENDTAB
0
TABLE
2
STYLE
5
3
100
AcDbSymbolTable
70
1
0
STYLE
5
11
100
AcDbSymbolTableRecord
100
AcDbTextStyleTableRecord
2
STANDARD
70
0
0
ENDTAB
0
TABLE
2
VIEW
5
6
100
AcDbSymbolTable
70
0
0
ENDTAB
0
TABLE
2
UCS
5
7
100
AcDbSymbolTable
70
0
0
ENDTAB
0
TABLE
2
APPID
5
9
100
AcDbSymbolTable
70
2
0
APPID
5
12
100
AcDbSymbolTableRecord
100
AcDbRegAppTableRecord
2
ACAD
70
0
0
ENDTAB
0
TABLE
2
DIMSTYLE
5
A
100
AcDbSymbolTable
70
1
0
ENDTAB
0
TABLE
2
BLOCK_RECORD
5
1
100
AcDbSymbolTable
70
1
0
BLOCK_RECORD
5
1F
100
AcDbSymbolTableRecord
100
AcDbBlockTableRecord
2
*MODEL_SPACE
0
BLOCK_RECORD
5
1B
100
AcDbSymbolTableRecord
100
AcDbBlockTableRecord
2
*PAPER_SPACE
0
ENDTAB
0
ENDSEC
0
SECTION
2
BLOCKS
0
BLOCK
5
20
100
AcDbEntity
100
AcDbBlockBegin
2
*MODEL_SPACE
0
ENDBLK
5
21
100
AcDbEntity
100
AcDbBlockEnd
0
BLOCK
5
1C
100
AcDbEntity
100
AcDbBlockBegin
2
*PAPER_SPACE
0
ENDBLK
5
1D
100
AcDbEntity
100
AcDbBlockEnd
0
ENDSEC
0
SECTION
2
ENTITIES
0
POINT
5
100
100
AcDbEntity
8
0
100
AcDbPoint
10
-7.0000005340154559
20
6.8750000000000089
30
0
0
CIRCLE
5
101
100
AcDbEntity
8
0
100
AcDbCircle
10
-46.30000000000598
20
16.600000000000005
30
0
40
1.0999999999999941
210
0
220
-0
230
1
0
CIRCLE
5
102
100
AcDbEntity
8
0
100
AcDbCircle
10
-12.50000000000599
20
7.4999999999999964
30
0
40
1.0999999999999941
210
0
220
-0
230
1
0
CIRCLE
5
103
100
AcDbEntity
8
0
100
AcDbCircle
10
-46.30000000000598
20
2.2000000000000037
30
0
40
1.0999999999999941
210
0
220
-0
230
1
0
LWPOLYLINE
5
104
100
AcDbEntity
8
0
100
AcDbPolyline
90
8
70
1
43
0.0
10
-1.9999999999999996
20
1.5000000000000102
42
0.41421356237307372
10
-1.5000000000000013
20
2.000000000000008
10
-1.4999999999999392
20
4.4999999999999902
42
0.41421356237309992
10
-1.9999999999999107
20
5.0000000000000053
10
-4.4999999999999813
20
5.0000000000000053
42
0.41421356237308948
10
-4.9999999999999876
20
4.5000000000000071
10
-4.9999999999999885
20
2.000000000000008
42
0.41421356237308971
10
-4.4999999999999813
20
1.5000000000000102
0
LWPOLYLINE
5
105
100
AcDbEntity
8
0
100
AcDbPolyline
90
22
70
1
43
0.0
10
-14.344091387278816
20
1.7799999999999883
42
0.4142135623731002
10
-14.844091387278823
20
2.2800000000000042
10
-42.784091387278792
20
2.2799999999999865
42
0.41421356237313145
10
-43.284091387278806
20
1.7799999999999883
10
-43.284091387278721
20
0.50000000000002665
42
-0.41421356237308976
10
-43.784091387278735
20
-6.6613381477509385e-15
10
-54.800000000006136
20
-1.1102230246251565e-14
42
-0.99999999999999989
10
-54.800000000005994
20
18.799999999999994
10
-43.784091387278707
20
18.799999999999969
42
-0.41421356237311585
10
-43.284091387278707
20
18.299999999999937
10
-43.284091387278792
20
17.020000000000003
42
0.41421356237306384
10
-42.784091387278913
20
16.519999999999996
10
-14.844091387278823
20
16.519999999999996
42
0.41421356237309509
10
-14.344091387278814
20
17.020000000000003
10
-14.344091387278816
20
18.299999999999908
42
-0.41421356237309509
10
-13.844091387278812
20
18.799999999999912
10
-2.000001621216192
20
18.799999999999898
42
-0.41421353028909214
10
-1.6212162173845355e-06
20
16.800000219083152
10
1.0824674490095276e-14
20
1.9999999999999996
42
-0.41421356237308843
10
-1.9999999999999996
20
-1.9428902930940239e-15
10
-13.844091387278795
20
1.6653345369377348e-15
42
-0.41421356237309009
10
-14.344091387278793
20
0.49999999999999156
0
LWPOLYLINE
5
106
100
AcDbEntity
8
0
100
AcDbPolyline
90
6
70
1
43
0.0
10
-5.3401546296072411e-07
20
6.8750000000000089
10
-6.5000005340154487
20
6.8750000000000089
42
-0.41421356237308982
10
-7.0000005340154559
20
7.3750000000000071
10
-7.0000005340154736
20
15.874999999999968
42
-0.41421356237309509
10
-6.500000534015431
20
16.375000000000011
10
-5.3401546296072411e-07
20
16.375000000000011
0
LINE
5
107
100
AcDbEntity
8
0
100
AcDbLine
10
-2
20
-1.9239091160366456e-15
30
0
11
-13.844091387278796
21
-4.163336342344337e-16
31
0
0
ENDSEC
0
SECTION
2
OBJECTS
0
DICTIONARY
5
C
100
AcDbDictionary
3
ACAD_GROUP
350
D
3
ACAD_MLINESTYLE
350
17
0
DICTIONARY
5
D
100
AcDbDictionary
0
DICTIONARY
5
1A
330
C
100
AcDbDictionary
0
DICTIONARY
5
17
100
AcDbDictionary
0
ENDSEC
0
EOF
